<svg width="24" height="25" viewBox="0 0 24 25" fill="none" xmlns="http://www.w3.org/2000/svg">
<g id="content_copy_24dp_E8EAED_FILL0_wght400_GRAD0_opsz24 1">
<path id="Vector" d="M9 18.561C8.45 18.561 7.97917 18.3651 7.5875 17.9735C7.19583 17.5818 7 17.111 7 16.561V4.56097C7 4.01097 7.19583 3.54014 7.5875 3.14847C7.97917 2.75681 8.45 2.56097 9 2.56097H18C18.55 2.56097 19.0208 2.75681 19.4125 3.14847C19.8042 3.54014 20 4.01097 20 4.56097V16.561C20 17.111 19.8042 17.5818 19.4125 17.9735C19.0208 18.3651 18.55 18.561 18 18.561H9ZM9 16.561H18V4.56097H9V16.561ZM5 22.561C4.45 22.561 3.97917 22.3651 3.5875 21.9735C3.19583 21.5818 3 21.111 3 20.561V6.56097H5V20.561H16V22.561H5Z" fill="#E8EAED"/>
</g>
</svg>
